<svg width="102" height="36" viewBox="0 0 102 36" fill="none" xmlns="http://www.w3.org/2000/svg">
<path d="M4.48399 9.64567C6.65392 9.64567 7.83265 8.46694 7.83265 6.91316C7.83265 5.26562 6.56016 4.64946 4.72509 4.22084C3.21149 3.85918 2.42121 3.5645 2.42121 2.70724C2.42121 1.97053 3.14452 1.3142 4.17591 1.3142C5.11354 1.3142 6.03777 1.72943 6.81466 2.43935L7.59155 1.42135C6.7075 0.644462 5.64932 0.12207 4.22949 0.12207C2.38103 0.12207 1.04156 1.28741 1.04156 2.82779C1.04156 4.48873 2.28726 5.05131 4.16252 5.49333C5.7029 5.84159 6.4664 6.17646 6.4664 7.04711C6.4664 7.78382 5.81006 8.45355 4.53757 8.45355C3.29186 8.45355 2.32745 7.94455 1.51037 7.16766L0.693298 8.17226C1.67111 9.10989 2.9436 9.64567 4.48399 9.64567Z" fill="#282873"/>
<path d="M15.2549 9.65907C16.5675 9.65907 17.7731 9.09649 18.6437 8.21244L17.6927 7.30161C17.0765 7.97134 16.2059 8.41336 15.2549 8.41336C13.4198 8.41336 11.866 6.806 11.866 4.89057C11.866 2.98853 13.4198 1.38117 15.2549 1.38117C16.2059 1.38117 17.0765 1.82319 17.6927 2.49293L18.6437 1.58209C17.7731 0.684646 16.5675 0.135465 15.2549 0.135465C12.6697 0.135465 10.473 2.3054 10.473 4.89057C10.473 7.47574 12.6697 9.65907 15.2549 9.65907Z" fill="#282873"/>
<path d="M28.5902 9.49833H30.0904L26.139 0.2962H24.6388L20.6873 9.49833H22.1875L22.9912 7.62308H27.7865L28.5902 9.49833ZM23.5136 6.40416L25.3889 2.03751L27.2641 6.40416H23.5136Z" fill="#282873"/>
<path d="M32.9422 9.49833H34.2951V2.94834L37.5232 8.96255L40.7513 2.94834V9.49833H42.1041V0.2962H40.7513L37.5232 6.3104L34.2951 0.2962H32.9422V9.49833Z" fill="#282873"/>
<path d="M0.894653 23.7804H2.52462V12.6934H0.894653V23.7804Z" fill="#282873"/>
<path d="M6.76787 23.7804H10.5926C14.1754 23.7804 16.7252 21.4726 16.7252 18.2288C16.7252 14.985 14.1754 12.6934 10.5926 12.6934H6.76787V23.7804ZM8.39783 22.2957V14.1781H10.6895C13.2555 14.1781 15.0468 15.8565 15.0468 18.2288C15.0468 20.6173 13.2555 22.2957 10.6895 22.2957H8.39783Z" fill="#282873"/>
<path d="M28.6307 14.2104V12.6934H20.4809V23.7804H28.6307V22.2634H22.127V18.8905H28.0013V17.3735H22.127V14.2104H28.6307Z" fill="#282873"/>
<path d="M32.4852 23.7804H34.1151V15.3723L40.4898 23.7804H42.1197V12.6934H40.4898V21.1014L34.1151 12.6934H32.4852V23.7804Z" fill="#282873"/>
<path d="M49.4382 23.7804H51.0682V14.2104H54.7154V12.6934H45.8071V14.2104H49.4382V23.7804Z" fill="#282873"/>
<path d="M58.1983 23.7804H59.8283V12.6934H58.1983V23.7804Z" fill="#282873"/>
<path d="M72.0277 14.2104V12.6934H63.8778V23.7804H65.5239V18.955H71.3983V17.438H65.5239V14.2104H72.0277Z" fill="#282873"/>
<path d="M75.4682 23.7804H77.0981V12.6934H75.4682V23.7804Z" fill="#282873"/>
<path d="M89.2976 14.2104V12.6934H81.1477V23.7804H89.2976V22.2634H82.7938V18.8905H88.6682V17.3735H82.7938V14.2104H89.2976Z" fill="#282873"/>
<path d="M101.738 16.3083C101.738 14.1942 99.9624 12.6934 97.6223 12.6934H92.9583V23.7804H94.5883V19.9233H97.1381L99.8494 23.7804H101.721L98.8972 19.7619C100.576 19.3262 101.738 18.019 101.738 16.3083ZM94.5883 14.2104H97.3964C98.9941 14.2104 100.075 15.0011 100.075 16.3083C100.075 17.6155 98.9941 18.4063 97.3964 18.4063H94.5883V14.2104Z" fill="#282873"/>
<path d="M46.5469 30.1032H46.7087V28.9033H47.8457C48.4703 28.9033 48.9152 28.5123 48.9152 27.9596C48.9152 27.4068 48.4703 27.0158 47.8457 27.0158H46.5469V30.1032ZM46.7087 28.7415V27.1776H47.8142C48.3625 27.1776 48.7535 27.5012 48.7535 27.9596C48.7535 28.4179 48.3625 28.7415 47.8142 28.7415H46.7087Z" fill="#282873"/>
<path d="M50.4821 30.1571C51.1338 30.1571 51.682 29.5998 51.682 28.9392C51.682 28.2786 51.1338 27.7259 50.4821 27.7259C49.8305 27.7259 49.2778 28.2786 49.2778 28.9392C49.2778 29.5998 49.8305 30.1571 50.4821 30.1571ZM50.4821 29.9953C49.9159 29.9953 49.4396 29.5145 49.4396 28.9392C49.4396 28.3685 49.9159 27.8877 50.4821 27.8877C51.0439 27.8877 51.5202 28.3685 51.5202 28.9392C51.5202 29.5145 51.0439 29.9953 50.4821 29.9953Z" fill="#282873"/>
<path d="M52.7261 30.1032H52.9283L53.5934 28.0809L54.2585 30.1032H54.4607L55.2247 27.7798H55.0584L54.3619 29.8875L53.6653 27.7798H53.526L52.8294 29.8875L52.1329 27.7798H51.9666L52.7261 30.1032Z" fill="#282873"/>
<path d="M56.6159 29.9953C56.1126 29.9953 55.6767 29.5549 55.6407 29.0156H57.7214C57.7214 28.2427 57.281 27.7259 56.6159 27.7259C55.9778 27.7259 55.4745 28.2562 55.4745 28.9347C55.4745 29.5998 55.9958 30.1571 56.6159 30.1571C56.9889 30.1571 57.3934 30.0088 57.5866 29.7976L57.4743 29.6762C57.281 29.8875 56.9485 29.9953 56.6159 29.9953ZM56.6159 27.8877C57.1642 27.8877 57.5327 28.2741 57.5597 28.8539H55.6407C55.6767 28.3101 56.0946 27.8877 56.6159 27.8877Z" fill="#282873"/>
<path d="M58.4662 28.3101V27.7798H58.3044V30.1032H58.4662V28.8044C58.4662 28.2696 58.8392 27.8877 59.365 27.8877V27.7259C58.9381 27.7259 58.5651 27.982 58.4662 28.3101Z" fill="#282873"/>
<path d="M60.8465 29.9953C60.3432 29.9953 59.9073 29.5549 59.8714 29.0156H61.952C61.952 28.2427 61.5116 27.7259 60.8465 27.7259C60.2084 27.7259 59.7051 28.2562 59.7051 28.9347C59.7051 29.5998 60.2264 30.1571 60.8465 30.1571C61.2195 30.1571 61.624 30.0088 61.8172 29.7976L61.7049 29.6762C61.5116 29.8875 61.1791 29.9953 60.8465 29.9953ZM60.8465 27.8877C61.3948 27.8877 61.7633 28.2741 61.7903 28.8539H59.8714C59.9073 28.3101 60.3252 27.8877 60.8465 27.8877Z" fill="#282873"/>
<path d="M64.3641 26.9619V28.2652C64.1798 27.9326 63.8517 27.7259 63.4473 27.7259C62.8811 27.7259 62.4047 28.2786 62.4047 28.9392C62.4047 29.5998 62.8811 30.1571 63.4473 30.1571C63.8517 30.1571 64.1798 29.9504 64.3641 29.6178V30.1032H64.5258V26.9619H64.3641ZM63.4788 29.9953C62.9844 29.9953 62.5665 29.5145 62.5665 28.9392C62.5665 28.3685 62.9844 27.8877 63.4788 27.8877C63.9956 27.8877 64.3641 28.3236 64.3641 28.9392C64.3641 29.5594 63.9956 29.9953 63.4788 29.9953Z" fill="#282873"/>
<path d="M67.6555 27.7259C67.251 27.7259 66.923 27.9326 66.7387 28.2652V26.9619H66.5769V30.1032H66.7387V29.6178C66.923 29.9504 67.251 30.1571 67.6555 30.1571C68.2217 30.1571 68.6981 29.5998 68.6981 28.9392C68.6981 28.2786 68.2217 27.7259 67.6555 27.7259ZM67.624 29.9953C67.1072 29.9953 66.7387 29.5594 66.7387 28.9392C66.7387 28.3236 67.1072 27.8877 67.624 27.8877C68.1183 27.8877 68.5363 28.3685 68.5363 28.9392C68.5363 29.5145 68.1183 29.9953 67.624 29.9953Z" fill="#282873"/>
<path d="M69.5131 30.9121C69.8412 30.9076 70.0614 30.7548 70.1872 30.4447L71.2793 27.7798H71.104L70.1962 29.9908L69.2525 27.7798H69.0772L70.1108 30.1975L69.9715 30.5256C69.8906 30.6649 69.7199 30.7503 69.5131 30.7503C69.4098 30.7503 69.2929 30.7188 69.1896 30.6694L69.1446 30.8357C69.248 30.8851 69.3873 30.9121 69.5131 30.9121Z" fill="#282873"/>
<path fill-rule="evenodd" clip-rule="evenodd" d="M99.5794 28.688C101.73 28.6833 101.738 26.9619 101.738 26.9619H94.1284V35.8777H96.1026V32.3484H97.9834C100.173 32.3484 100.173 30.623 100.173 30.623H100.167L100.169 30.6218H96.1026V28.688L99.5794 28.688Z" fill="#282873"/>
<path fill-rule="evenodd" clip-rule="evenodd" d="M79.5409 31.4954C82.2785 29.7659 82.5659 26.9619 82.5659 26.9619H80.414C80.414 26.9619 79.743 30.1298 76.4261 30.6852V26.9619H74.4528V35.8777H76.4261V32.5974C76.8498 32.5311 77.2704 32.4425 77.6733 32.3278C77.7681 32.4481 80.3299 35.8761 80.3299 35.8761H82.7618C82.7618 35.8761 79.6498 31.6463 79.5409 31.4954" fill="#282873"/>
<path fill-rule="evenodd" clip-rule="evenodd" d="M90.6453 32.7238L86.2314 26.9619H84.2714V35.8777H86.2314V30.1154L90.6453 35.8777H92.6199V26.9619H90.6453V32.7238Z" fill="#282873"/>
</svg>
